HIERARCHY
ROOT Hips
{
	OFFSET 0.00 0.00 0.00
	CHANNELS 6 Xposition Yposition Zposition Yrotation Xrotation Zrotation
	JOINT Spine
	{
		OFFSET	0.0000	9.2263	1.5771
		CHANNELS 3 Xrotation Yrotation Zrotation
		JOINT Spine1
		{
			OFFSET	0.0000	16.2540	-0.1656
			CHANNELS 3 Xrotation Yrotation Zrotation
			JOINT Spine2
			{
				OFFSET	0.0000	13.6396	-1.2923
				CHANNELS 3 Xrotation Yrotation Zrotation
				JOINT Neck
				{
					OFFSET	0.0000	13.8774	-4.3542
					CHANNELS 3 Xrotation Yrotation Zrotation
					JOINT Neck1
					{
						OFFSET	0.0000	4.3400	0.9269
						CHANNELS 3 Xrotation Yrotation Zrotation
						JOINT Head
						{
							OFFSET	0.0000	4.0266	0.8585
							CHANNELS 3 Xrotation Yrotation Zrotation
							End Site
							{
								OFFSET 0.0000 23.0297 0.1231
							}
						}
					}
				}
				JOINT LeftShoulder
				{
					OFFSET	6.1442	10.1870	-3.7932
					CHANNELS 3 Zrotation Xrotation Yrotation
					JOINT LeftArm
					{
						OFFSET	12.3191	-1.1130	-1.7935
						CHANNELS 3 Zrotation Xrotation Yrotation
						JOINT LeftForeArm
						{
							OFFSET	27.6870	0.0000	0.0000
							CHANNELS 3 Xrotation Zrotation Yrotation
							JOINT LeftHand
							{
								OFFSET	27.8738	0.0000	0.0000
								CHANNELS 3 Zrotation Yrotation Xrotation
								JOINT LeftHandThumb1
								{
									OFFSET	2.3785	-1.0029	2.6209
									CHANNELS 3 Zrotation Xrotation Yrotation
									JOINT LeftHandThumb2
									{
										OFFSET	3.3624	-1.0029	2.8398
										CHANNELS 3 Zrotation Xrotation Yrotation
										JOINT LeftHandThumb3
										{
											OFFSET	4.5018	-1.3445	2.1783
											CHANNELS 3 Zrotation Xrotation Yrotation
											End Site
											{
												OFFSET 2.6000 -1.0000 1.0000
											}
										}
									}
								}
								JOINT LeftHandMiddle1
								{
									OFFSET	10.4639	0.6148	0.4298
									CHANNELS 3 Zrotation Xrotation Yrotation
									JOINT LeftHandMiddle2
									{
										OFFSET	5.7921	0.0000	0.0000
										CHANNELS 3 Zrotation Xrotation Yrotation
										JOINT LeftHandMiddle3
										{
											OFFSET	3.7132	0.0000	0.0000
											CHANNELS 3 Zrotation Xrotation Yrotation
											End Site
											{
												OFFSET 2.3000 0.0000 0.0000
											}
										}
									}
								}
								JOINT LeftHandIndex1
								{
									OFFSET	10.3945	0.6148	2.7055
									CHANNELS 3 Zrotation Xrotation Yrotation
									JOINT LeftHandIndex2
									{
										OFFSET	5.5493	0.0000	0.0000
										CHANNELS 3 Zrotation Xrotation Yrotation
										JOINT LeftHandIndex3
										{
											OFFSET	3.3911	0.0000	0.0000
											CHANNELS 3 Zrotation Xrotation Yrotation
											End Site
											{
												OFFSET 2.5000 0.0000 0.0000
											}
										}
									}
								}
								JOINT LeftHandRing1
								{
									OFFSET	10.3252	0.3211	-1.8755
									CHANNELS 3 Zrotation Xrotation Yrotation
									JOINT LeftHandRing2
									{
										OFFSET	5.4452	0.0000	0.0000
										CHANNELS 3 Zrotation Xrotation Yrotation
										JOINT LeftHandRing3
										{
											OFFSET	3.7132	0.0000	0.0000
											CHANNELS 3 Zrotation Xrotation Yrotation
											End Site
											{
												OFFSET 2.0000 0.0000 0.0000
											}
										}
									}
								}
								JOINT LeftHandPinky1
								{
									OFFSET	10.0130	-0.0783	-3.9671
									CHANNELS 3 Zrotation Xrotation Yrotation
									JOINT LeftHandPinky2
									{
										OFFSET	3.6763	0.0000	0.0000
										CHANNELS 3 Zrotation Xrotation Yrotation
										JOINT LeftHandPinky3
										{
											OFFSET	2.8113	0.0000	0.0000
											CHANNELS 3 Zrotation Xrotation Yrotation
											End Site
											{
												OFFSET 2.9000 0.0000 0.0000
											}
										}
									}
								}
							}
						}
					}
				}
				JOINT RightShoulder
				{
					OFFSET	-6.1402	10.1870	-3.7932
					CHANNELS 3 Zrotation Xrotation Yrotation
					JOINT RightArm
					{
						OFFSET	-12.3231	-1.1130	-1.7935
						CHANNELS 3 Zrotation Xrotation Yrotation
						JOINT RightForeArm
						{
							OFFSET	-27.6870	0.0000	0.0000
							CHANNELS 3 Xrotation Zrotation Yrotation
							JOINT RightHand
							{
								OFFSET	-27.8738	0.0000	0.0000
								CHANNELS 3 Zrotation Yrotation Xrotation
								JOINT RightHandThumb1
								{
									OFFSET	-2.5178	-0.9367	2.5137
									CHANNELS 3 Zrotation Xrotation Yrotation
									JOINT RightHandThumb2
									{
										OFFSET	-3.2638	-1.0870	2.9669
										CHANNELS 3 Zrotation Xrotation Yrotation
										JOINT RightHandThumb3
										{
											OFFSET	-4.4165	-1.3703	2.1350
											CHANNELS 3 Zrotation Xrotation Yrotation
											End Site
											{
												OFFSET -2.6000 -1.0000 1.0000
											}
										}
									}
								}
								JOINT RightHandIndex1
								{
									OFFSET	-10.4665	0.4896	2.7120
									CHANNELS 3 Zrotation Xrotation Yrotation
									JOINT RightHandIndex2
									{
										OFFSET	-5.3768	0.0000	0.0000
										CHANNELS 3 Zrotation Xrotation Yrotation
										JOINT RightHandIndex3
										{
											OFFSET	-3.3855	0.0000	0.0000
											CHANNELS 3 Zrotation Xrotation Yrotation
											End Site
											{
												OFFSET -2.6000 0.0000 0.0000
											}
										}
									}
								}
								JOINT RightHandMiddle1
								{
									OFFSET	-10.7596	0.4896	0.4278
									CHANNELS 3 Zrotation Xrotation Yrotation
									JOINT RightHandMiddle2
									{
										OFFSET	-5.6168	0.0000	0.0000
										CHANNELS 3 Zrotation Xrotation Yrotation
										JOINT RightHandMiddle3
										{
											OFFSET	-3.7364	0.0000	0.0000
											CHANNELS 3 Zrotation Xrotation Yrotation
											End Site
											{
												OFFSET -2.3000 0.0000 0.0000
											}
										}
									}
								}
								JOINT RightHandRing1
								{
									OFFSET	-10.4702	0.3879	-1.9363
									CHANNELS 3 Zrotation Xrotation Yrotation
									JOINT RightHandRing2
									{
										OFFSET	-5.4013	0.0000	0.0000
										CHANNELS 3 Zrotation Xrotation Yrotation
										JOINT RightHandRing3
										{
											OFFSET	-3.3916	0.0000	0.0000
											CHANNELS 3 Zrotation Xrotation Yrotation
											End Site
											{
												OFFSET -2.2000 0.0000 0.0000
											}
										}
									}
								}
								JOINT RightHandPinky1
								{
									OFFSET	-9.9715	-0.1191	-3.9540
									CHANNELS 3 Zrotation Xrotation Yrotation
									JOINT RightHandPinky2
									{
										OFFSET	-3.6528	0.0000	0.0000
										CHANNELS 3 Zrotation Xrotation Yrotation
										JOINT RightHandPinky3
										{
											OFFSET	-2.7820	0.0000	0.0000
											CHANNELS 3 Zrotation Xrotation Yrotation
											End Site
											{
												OFFSET -2.9000 0.0000 0.0000
											}
										}
									}
								}
							}
						}
					}
				}
			}
		}
	}
	JOINT LeftUpLeg
	{
		OFFSET	9.6338	-3.2733	0.0000
		CHANNELS 3 Xrotation Yrotation Zrotation
		JOINT LeftLeg
		{
			OFFSET	0.0000	-41.7300	-1.7300
			CHANNELS 3 Xrotation Yrotation Zrotation
			JOINT LeftFoot
			{
				OFFSET	0.0126	-39.1900	-0.8477
				CHANNELS 3 Xrotation Yrotation Zrotation
				JOINT LeftToeBase
				{
					OFFSET	-0.1833	-12.1931	8.2823
					CHANNELS 3 Xrotation Yrotation Zrotation
					End Site
					{
						OFFSET 0.0000 0.0000 10.1681
					}
				}
			}
		}
	}
	JOINT RightUpLeg
	{
		OFFSET	-9.6338	-3.2733	0.0000
		CHANNELS 3 Xrotation Yrotation Zrotation
		JOINT RightLeg
		{
			OFFSET	0.0000	-41.7300	-1.7300
			CHANNELS 3 Xrotation Yrotation Zrotation
			JOINT RightFoot
			{
				OFFSET	0.0126	-39.1900	-0.8477
				CHANNELS 3 Xrotation Yrotation Zrotation
				JOINT RightToeBase
				{
					OFFSET	-0.1833	-12.1931	8.2823
					CHANNELS 3 Xrotation Yrotation Zrotation
					End Site
					{
						OFFSET 0.0032 0.0000 10.1681
					}
				}
			}
		}
	}
}
MOTION
Frames: 4
Frame Time: 0.0333333
0.0034 86.7355 -0.0107 -35.6338 7.3552 -2.9349 4.1174 4.1368 4.4500 2.2333 1.5876 0.8586 2.1988 1.6640 0.8065 -1.9311 3.6988 -0.6574 -0.0000 0.0000 -0.0000 5.1632 18.7083 -7.4162 -2.8549 9.1857 -11.2416 -55.0328 -32.0345 -39.9945 -0.0000 -0.0000 -105.9335 2.3916 3.5808 20.5237 -2.4128 -2.1253 -13.1304 -0.0087 0.0025 32.2617 19.6208 2.5676 32.0546 -50.3184 0.0061 -0.0121 -76.0202 0.0114 -0.0146 -21.2033 0.0010 -0.0054 -36.6807 0.0035 -4.7702 -76.0202 0.0114 -0.0146 -21.2033 0.0010 -0.0054 -58.8721 0.0080 3.7891 -84.8224 0.0137 -0.0150 -26.9123 0.0016 -0.0068 -70.5633 0.0106 10.7269 -84.0967 0.0135 -0.0149 -36.1754 0.0029 -0.0089 -1.0248 4.4626 14.1990 55.2601 3.4934 55.3020 -0.0000 0.0000 111.7319 3.0993 7.9454 7.4050 2.4168 -2.1217 13.1286 0.0047 0.0015 -32.2619 -18.2256 5.2243 -37.7587 36.6810 0.0018 4.7656 76.0202 0.0060 0.0077 21.2033 0.0005 0.0029 50.3181 0.0031 0.0063 76.0202 0.0060 0.0077 21.2033 0.0005 0.0029 58.8713 0.0041 -3.7954 84.8224 0.0072 0.0079 26.9123 0.0009 0.0036 70.5617 0.0055 -10.7338 84.0967 0.0071 0.0079 36.1754 0.0015 0.0047 -47.2498 4.3053 21.8983 44.5652 -4.9848 -2.0737 -5.0655 0.6342 -8.7210 -0.0104 -0.0000 0.0000 -18.6567 -11.3850 -18.9695 42.9752 -6.8499 -2.4446 -10.1299 -2.6378 22.3253 -15.8485 0.0000 -0.0000 
0.1056 87.2141 0.5330 -39.5877 6.7606 -2.7867 3.9914 3.8693 4.3042 2.1491 1.2985 0.8038 2.1199 1.3743 0.7598 -2.1068 4.2506 -0.2872 -0.0000 0.0000 -0.0000 5.5517 21.7579 -8.4357 -2.7244 9.1645 -11.0322 -48.8361 -30.2952 -34.5450 0.0000 -0.0000 -96.2048 3.4040 4.2908 19.4341 -0.1649 1.1448 -9.3473 -0.0079 0.0026 28.3536 19.6866 1.9779 30.4029 -41.4885 0.0044 -0.0106 -67.5799 0.0093 -0.0139 -21.6320 0.0011 -0.0055 -28.5235 0.0317 -6.3956 -67.4540 0.0093 -0.0139 -19.2549 0.0008 -0.0050 -50.8945 -0.0141 4.7485 -74.9882 0.0111 -0.0145 -26.3969 0.0016 -0.0067 -63.5599 -2.5421 12.3939 -74.6622 0.0111 -0.0145 -34.1292 0.0026 -0.0084 -0.8105 4.4934 14.1097 49.4209 5.2466 51.8738 0.0000 0.0000 110.5108 -0.1899 8.7768 9.6473 1.6925 -1.5931 9.4765 0.0043 0.0015 -28.3954 -18.4210 4.4612 -35.4471 35.3801 1.3778 5.1792 74.6722 0.0058 0.0076 19.0300 0.0004 0.0026 49.8072 0.0031 0.0063 74.7627 0.0058 0.0076 21.1690 0.0005 0.0029 59.2143 0.0043 -3.9933 82.4501 0.0069 0.0079 26.0838 0.0008 0.0035 70.7087 -2.2037 -9.9514 81.7426 0.0068 0.0078 34.0397 0.0013 0.0044 -44.5917 4.4913 22.6891 44.2094 -1.3129 -2.7116 -5.9037 0.6675 -9.6238 -0.7309 -0.0000 -0.0000 -18.8526 -11.1833 -19.5484 40.9656 -3.3675 -3.4669 -8.8779 -2.3737 21.5809 -15.5109 0.0000 -0.0000 
0.4631 87.8894 1.6198 -45.1017 6.3111 -2.5482 3.7892 3.3503 3.8945 2.1564 0.8561 0.6652 2.1362 0.9311 0.6359 -2.0768 5.0287 0.3014 -0.0000 0.0000 -0.0000 6.2916 25.8538 -10.2793 -2.5273 9.1429 -10.8364 -42.0646 -26.5979 -28.6350 -0.0000 0.0000 -82.9032 5.1936 5.1462 17.3112 2.5768 7.8286 -2.7064 -0.0064 0.0025 21.0991 19.7636 0.8794 27.3396 -25.0977 0.0018 -0.0072 -51.9124 0.0058 -0.0118 -22.4278 0.0011 -0.0057 -13.2700 0.0788 -9.1233 -51.5587 0.0057 -0.0118 -15.6381 0.0005 -0.0041 -36.0371 -0.0374 6.3096 -56.7416 0.0068 -0.0126 -25.4403 0.0015 -0.0064 -49.9490 -7.1915 15.2304 -57.1491 0.0069 -0.0126 -30.3309 0.0021 -0.0076 -0.5455 4.5362 13.9498 41.7864 9.0002 47.2191 0.0000 -0.0000 106.5826 -6.4431 10.2834 12.2807 0.4723 -0.4733 2.7217 0.0035 0.0015 -21.2180 -18.7010 3.0266 -31.1683 32.4152 3.9609 6.0357 71.7182 0.0054 0.0075 14.9958 0.0003 0.0021 48.4453 0.0029 0.0062 71.9840 0.0055 0.0075 21.1053 0.0005 0.0028 59.5101 0.0042 -4.4021 77.5076 0.0062 0.0077 24.4787 0.0007 0.0033 70.8340 -6.4656 -8.5712 76.8353 0.0061 0.0077 29.9034 0.0011 0.0039 -41.2683 5.0455 23.1649 43.8974 3.2276 -3.3550 -7.1040 1.4683 -10.7322 -1.6782 0.0000 -0.0000 -19.4292 -10.4649 -19.9164 38.0584 -1.2128 -5.0394 -6.1975 -2.0616 20.8477 -15.6296 0.0000 -0.0000 
0.9931 88.6938 3.1150 -51.7936 5.9574 -2.1060 3.5359 2.6639 3.2131 2.2791 0.3680 0.4671 2.2701 0.4433 0.4588 -1.8870 5.9889 1.0003 -0.0000 0.0000 -0.0000 7.4897 30.5782 -12.9984 -2.3301 9.1185 -10.6167 -35.3498 -20.9874 -22.3665 -0.0000 -0.0000 -67.1646 7.9989 5.9714 14.3095 4.1936 15.0971 3.9244 -0.0050 0.0023 13.6301 19.7814 -0.2542 24.1877 -8.2220 0.0003 -0.0030 -35.7813 0.0028 -0.0088 -23.2472 0.0012 -0.0059 2.5200 0.1148 -11.7131 -35.1973 0.0028 -0.0087 -11.9144 0.0003 -0.0031 -20.7029 -0.0233 7.7505 -37.9631 0.0032 -0.0093 -24.4554 0.0014 -0.0062 -35.4541 -11.8895 18.0569 -39.1179 0.0034 -0.0095 -26.4203 0.0016 -0.0067 -0.2743 4.5819 13.7591 33.9560 14.7308 41.8975 0.0000 0.0000 100.6553 -14.6892 12.5237 15.0620 -0.6695 0.7927 -4.2125 0.0028 0.0014 -13.8282 -18.8762 1.5321 -26.7746 28.1270 6.7448 7.1357 67.5896 0.0049 0.0073 10.8422 0.0001 0.0015 46.0764 0.0027 0.0059 68.0562 0.0050 0.0073 21.0398 0.0005 0.0028 59.0475 0.0033 -4.9285 71.0907 0.0054 0.0075 22.6396 0.0006 0.0030 70.3679 -11.1927 -7.2517 70.4698 0.0053 0.0074 25.1658 0.0008 0.0034 -37.3996 6.1531 22.8532 43.2091 6.6940 -3.6861 -8.2821 4.6996 -11.8508 -2.4730 0.0000 -0.0000 -23.3257 -8.7852 -20.5761 39.0428 -3.7127 -5.3888 0.7139 -1.6670 18.7863 -16.4049 -0.0018 0.5179 
